<svg version="1.1" id="Layer_1" xmlns="http://www.w3.org/2000/svg" xmlns:xlink="http://www.w3.org/1999/xlink" x="0px" y="0px"
	 width="100%" viewBox="0 0 500 500" enable-background="new 0 0 500 500" xml:space="preserve">
<path fill="#FFFFFF" opacity="1.000000" stroke="none" 
	d="
M331.000000,501.000000 
	C220.666687,501.000000 110.833389,501.000000 1.000059,501.000000 
	C1.000039,334.333405 1.000039,167.666794 1.000020,1.000148 
	C167.666565,1.000099 334.333130,1.000099 500.999756,1.000049 
	C500.999847,167.666519 500.999847,334.333038 500.999939,500.999786 
	C444.500000,501.000000 388.000000,501.000000 331.000000,501.000000 
M51.980137,286.585999 
	C58.503719,323.183014 74.154854,355.387726 98.331696,383.578705 
	C174.286606,472.144684 312.698151,476.828949 394.494843,393.543701 
	C461.394318,325.426819 472.361847,222.828766 421.364105,142.190170 
	C377.199860,72.356850 293.495209,35.992485 212.271790,52.677242 
	C144.629669,66.572159 95.917557,105.560974 66.688538,168.155823 
	C49.200138,205.607773 45.140232,245.067932 51.980137,286.585999 
z"/>
<path fill="#161A5D" opacity="1.000000" stroke="none" 
	d="
M51.914394,286.158936 
	C45.140232,245.067932 49.200138,205.607773 66.688538,168.155823 
	C95.917557,105.560974 144.629669,66.572159 212.271790,52.677242 
	C293.495209,35.992485 377.199860,72.356850 421.364105,142.190170 
	C472.361847,222.828766 461.394318,325.426819 394.494843,393.543701 
	C312.698151,476.828949 174.286606,472.144684 98.331696,383.578705 
	C74.154854,355.387726 58.503719,323.183014 51.914394,286.158936 
M258.382874,347.863037 
	C257.850037,347.321533 257.317169,346.780060 256.784363,346.238556 
	C256.500763,348.413727 255.988724,350.592499 256.023041,352.762665 
	C256.042267,353.977966 256.966766,355.178986 257.835846,357.210266 
	C258.316803,353.428589 258.602631,351.181183 259.730225,349.397552 
	C260.080444,351.623047 260.430664,353.848541 260.780914,356.074036 
	C261.063965,356.030243 261.347015,355.986420 261.630066,355.942627 
	C262.606201,353.436768 263.582306,350.930878 264.329712,349.012268 
	C263.379089,347.671234 262.378418,346.259552 261.327271,344.776642 
	C260.446167,346.080078 259.692352,347.195160 258.382874,347.863037 
M169.027481,348.310516 
	C166.171524,344.666901 161.593445,344.547943 160.289215,348.256134 
	C159.672974,350.008301 160.062378,352.114136 159.156433,354.324280 
	C157.587112,354.159729 156.017776,353.995178 154.402618,353.825806 
	C154.255081,350.910187 154.128876,348.416290 154.002670,345.922394 
	C153.569519,345.923706 153.136353,345.925018 152.703186,345.926331 
	C152.703186,349.127655 152.703186,352.329010 152.703186,356.948273 
	C155.234467,355.903107 157.573593,354.937286 160.595825,354.312347 
	C162.139008,354.932404 163.648087,355.869385 165.239563,356.040649 
	C166.052155,356.128082 167.012497,354.842102 168.064911,353.433868 
	C168.382309,351.968170 168.699722,350.502441 169.027481,348.310516 
M298.484558,350.385071 
	C299.547760,350.097076 300.610962,349.809113 301.674164,349.521118 
	C301.688721,349.097961 301.703278,348.674835 301.717834,348.251678 
	C299.011017,347.903870 296.304199,347.556061 293.597382,347.208221 
	C293.227844,347.582947 292.858307,347.957672 292.488739,348.332367 
	C294.214722,351.156006 295.940704,353.979614 297.666687,356.803223 
	C299.108215,355.862274 300.549744,354.921326 302.057465,353.256775 
	C300.712616,352.446960 299.367798,351.637115 298.484558,350.385071 
M280.690308,355.105255 
	C279.514801,353.608917 278.339294,352.112549 277.236359,350.708557 
	C278.670563,348.960541 279.785095,347.602112 280.899628,346.243713 
	C280.570343,345.967590 280.241058,345.691498 279.911774,345.415405 
	C278.474976,346.597565 277.038208,347.779694 275.560974,348.995148 
	C274.992645,347.832245 274.507416,346.839355 274.022186,345.846466 
	C273.801025,345.917694 273.579895,345.988892 273.358734,346.060120 
	C273.358734,349.330353 273.358734,352.600555 273.358734,355.870758 
	C273.652832,355.909302 273.946930,355.947845 274.241028,355.986389 
	C274.666840,354.975922 275.092651,353.965454 275.232819,353.632782 
	C277.442169,354.426147 279.249207,355.075073 281.834259,355.231079 
	C282.595612,355.525757 283.336273,355.988403 284.121979,356.085236 
	C287.111481,356.453674 289.279755,355.095215 288.828186,352.082001 
	C288.595032,350.526428 286.633789,348.333405 285.145111,348.050537 
	C282.122070,347.476135 280.851013,349.713470 280.978119,352.659393 
	C281.023926,353.721893 281.028961,354.786133 280.690308,355.105255 
M104.212471,192.076340 
	C101.277763,190.998276 99.053688,191.142319 98.222961,195.347687 
	C95.614723,194.250671 93.006485,193.153641 90.283119,192.008194 
	C90.239822,192.413651 90.108345,193.644852 89.272636,194.753433 
	C87.695320,193.095642 86.118011,191.437851 84.540695,189.780060 
	C84.026825,191.869110 83.070541,193.957001 83.065025,196.047394 
	C82.972618,231.032806 82.979340,266.018585 83.044533,301.004120 
	C83.048752,303.267944 83.265404,305.720795 84.143280,307.758209 
	C86.838539,314.013489 89.872261,320.124512 92.832672,326.263519 
	C97.102074,335.117096 105.124260,338.652832 114.637497,335.902283 
	C118.949577,334.655548 121.232071,332.148163 121.217865,327.256287 
	C121.101692,287.264374 121.152420,247.271973 121.152420,207.279724 
	C122.229416,208.750565 122.779610,210.387573 122.863098,212.048050 
	C123.038605,215.538956 122.802261,219.055725 123.084991,222.533432 
	C123.193214,223.864639 124.258133,225.118057 124.898071,226.315826 
	C124.898071,226.315826 124.917969,226.535355 123.703445,226.751358 
	C123.494194,227.706635 123.091957,228.664291 123.103653,229.616867 
	C123.485489,260.731964 123.907089,291.846619 124.121979,323.854279 
	C124.135689,325.684052 123.858406,327.576874 124.237556,329.327515 
	C124.700478,331.464874 125.432716,335.077942 126.539497,335.273468 
	C131.079636,336.075562 135.930420,336.532867 140.428741,335.749481 
	C144.692108,335.007019 143.741501,330.638031 143.752518,327.388489 
	C143.758667,325.571320 143.559128,323.753510 143.653122,321.028687 
	C143.585480,304.945343 143.520035,288.861969 143.449478,272.778625 
	C143.391281,259.513397 143.414459,246.246582 143.171783,232.984680 
	C143.135132,230.980789 141.847519,228.999786 141.144226,227.098068 
	C141.171219,226.849548 141.170151,226.720978 142.358627,226.428757 
	C142.576874,216.377701 142.797791,206.326706 143.000885,196.275345 
	C143.007202,195.963120 142.914795,195.578064 142.724808,195.343033 
	C137.733826,189.168869 132.942825,182.810562 127.604057,176.951706 
	C125.606644,174.759689 124.525673,176.498199 124.843521,179.512726 
	C124.802513,179.673309 124.804688,179.871429 124.707520,179.983185 
	C124.622002,180.081558 124.391045,180.162628 124.282997,180.115829 
	C122.728165,179.442520 121.183258,178.746262 119.201973,177.861755 
	C119.108360,179.494247 119.045837,180.584579 118.246872,182.189316 
	C117.317360,181.330307 116.455788,180.378342 115.440720,179.636368 
	C114.235786,178.755615 112.898766,178.055542 111.619003,177.277161 
	C111.079056,178.671051 109.915421,180.164062 110.118195,181.439911 
	C110.686142,185.013504 109.372810,187.636642 106.344688,190.109360 
	C105.887901,190.750412 105.431122,191.391464 104.212471,192.076340 
M236.761826,354.475586 
	C240.863464,357.260651 244.314819,357.018341 246.505219,351.979370 
	C247.721619,353.325348 248.634811,354.335815 249.526093,355.322021 
	C249.904312,355.011078 250.160172,354.851746 250.141846,354.808411 
	C249.400269,353.055878 248.633957,351.313782 247.953827,349.760010 
	C247.314987,349.919678 245.461426,350.587280 245.357086,350.378906 
	C243.126984,345.925446 239.922684,348.315277 236.522583,348.503540 
	C235.076355,347.505615 233.735535,346.161530 232.133926,345.673859 
	C231.458466,345.468170 230.233170,347.068207 229.257812,347.847443 
	C230.448624,349.173096 231.657822,350.482880 232.821732,351.831726 
	C233.333328,352.424622 233.752670,353.097107 234.966522,354.771881 
	C232.207306,353.945862 230.726624,353.502594 228.393326,352.804077 
	C230.812775,356.872620 233.093979,357.286926 236.761826,354.475586 
M240.869980,207.167664 
	C238.839279,198.194839 236.808578,189.222000 234.778397,180.251404 
	C229.927689,180.251404 225.189240,180.251404 220.492752,180.251404 
	C220.492752,203.939392 220.492752,227.297287 220.492752,250.608337 
	C225.174515,250.608337 229.445145,250.608337 234.154663,250.608337 
	C234.154663,240.423599 234.154663,230.488571 234.154663,220.553543 
	C234.404938,220.535522 234.655212,220.517517 234.905502,220.499512 
	C236.973846,230.536362 239.042206,240.573227 241.099838,250.558044 
	C245.909012,250.558044 250.323471,250.558044 254.711807,250.558044 
	C254.711807,226.875671 254.711807,203.506470 254.711807,180.242432 
	C250.076920,180.242432 245.826187,180.242432 241.065216,180.242432 
	C241.065216,189.181168 241.065216,197.806473 240.869980,207.167664 
M291.289124,266.009216 
	C281.724518,261.476593 271.703552,264.971191 261.845398,263.673981 
	C261.845398,287.718048 261.845398,311.094696 261.845398,334.500732 
	C266.688049,334.500732 271.133240,334.500732 276.072418,334.500732 
	C276.072418,323.866211 276.072418,313.453430 276.072418,303.049286 
	C280.357971,302.233643 281.111176,304.402405 281.096954,307.515503 
	C281.056122,316.445099 281.082550,325.375000 281.082550,334.404114 
	C286.111725,334.404114 290.504150,334.404114 295.416901,334.404114 
	C295.416901,324.933960 295.702637,315.778625 295.261292,306.658447 
	C295.107666,303.483795 293.156677,300.396149 291.842224,296.758667 
	C297.986908,290.745972 298.470032,274.809479 291.289124,266.009216 
M177.857407,253.437012 
	C180.313202,255.043274 182.768997,256.649536 185.466705,258.414001 
	C187.273895,255.223053 188.787689,252.550171 190.285248,249.905945 
	C188.082474,248.279938 186.384872,247.026840 185.168365,246.128876 
	C186.201492,242.238953 187.778580,238.913406 187.855148,235.553665 
	C188.162430,222.069717 188.320770,208.565659 187.915359,195.087662 
	C187.612152,185.007019 181.235550,179.443527 171.041748,179.184998 
	C160.898544,178.927780 153.838959,184.262238 153.373764,194.212708 
	C152.721222,208.171051 152.688416,222.209427 153.390350,236.163284 
	C153.918381,246.659927 160.633148,251.593689 171.243088,251.424744 
	C173.223511,251.393219 175.221375,252.458832 177.857407,253.437012 
M295.786957,231.222214 
	C295.787323,228.892944 295.827942,226.562851 295.781250,224.234528 
	C295.564728,213.439209 295.925781,202.586823 294.901062,191.867569 
	C294.084137,183.321823 286.931366,178.809601 277.413635,179.181915 
	C268.048279,179.548264 261.460358,184.339249 261.129486,192.771164 
	C260.549866,207.541672 260.502228,222.375061 261.188232,237.137650 
	C261.606873,246.147171 268.278900,251.200668 277.411224,251.375443 
	C287.498810,251.568481 293.369263,247.016647 295.110748,237.583603 
	C295.441620,235.791336 295.565613,233.960892 295.786957,231.222214 
M208.093842,328.375793 
	C208.506943,330.434570 208.920029,332.493317 209.287399,334.324219 
	C214.349075,334.324219 218.883575,334.324219 223.745178,334.324219 
	C221.912872,325.240967 220.341766,316.579895 218.381027,308.007935 
	C216.803543,301.111481 216.235367,294.384064 217.922104,287.360352 
	C219.737717,279.799927 220.807770,272.060455 222.257278,264.101685 
	C217.267776,264.101685 212.713257,264.101685 208.132553,264.101685 
	C207.216446,270.534882 206.347122,276.639374 205.477814,282.743866 
	C205.151108,282.735138 204.824402,282.726410 204.497696,282.717682 
	C203.475616,276.459991 202.453537,270.202332 201.468765,264.173035 
	C196.544739,264.173035 192.169647,264.173035 187.445251,264.173035 
	C188.561569,270.357819 189.514191,276.098633 190.646820,281.803711 
	C192.400742,290.638062 193.765274,299.312500 191.203568,308.390564 
	C188.827026,316.812500 187.630539,325.567444 185.802887,334.735382 
	C189.981506,334.735382 193.621826,334.621185 197.250778,334.775085 
	C199.719162,334.879761 200.753464,334.076172 201.092514,331.495026 
	C201.853561,325.701080 202.998642,319.957581 203.987381,314.193542 
	C204.510452,314.164764 205.033524,314.135956 205.556595,314.107178 
	C206.372665,318.579742 207.188736,323.052307 208.093842,328.375793 
M331.404938,303.945831 
	C327.984741,303.945831 324.564545,303.945831 320.831055,303.945831 
	C320.831055,308.959991 321.108795,313.297913 320.684814,317.566101 
	C320.530304,319.121735 318.705444,320.511505 317.642639,321.976959 
	C316.618805,320.499420 314.738220,319.040070 314.706421,317.541473 
	C314.448822,305.402405 314.417603,293.253448 314.673859,281.114990 
	C314.705963,279.593658 316.813721,278.116089 317.959747,276.618256 
	C318.933685,278.128967 320.555908,279.561646 320.749084,281.166351 
	C321.175354,284.707245 320.881561,288.334869 320.881561,291.842957 
	C325.996979,291.842957 330.399048,291.842957 335.000488,291.842957 
	C335.000488,286.720734 335.226227,281.909058 334.944824,277.127197 
	C334.570679,270.769562 330.436188,265.922913 324.336365,264.060791 
	C310.972473,259.981171 301.144836,266.613983 300.358093,280.965515 
	C299.739563,292.248505 300.038605,303.586121 300.091400,314.898712 
	C300.105225,317.864624 300.358124,320.925049 301.125488,323.773895 
	C303.404755,332.235748 310.636719,336.180359 321.234375,335.078461 
	C329.415497,334.227814 334.443848,329.158569 335.049652,320.712128 
	C335.382202,316.075073 335.369751,311.393005 335.126831,306.751434 
	C335.075562,305.771881 333.339508,304.880493 331.404938,303.945831 
M391.726196,318.956360 
	C393.153687,308.700714 389.735779,300.347076 381.963226,293.597595 
	C379.201202,291.199158 376.529755,288.653870 374.118408,285.910645 
	C372.747437,284.351044 371.555847,282.348206 371.128326,280.363068 
	C370.908752,279.343445 372.542480,277.924713 373.338715,276.686340 
	C374.445190,277.624390 375.930756,278.364960 376.551361,279.556152 
	C377.169586,280.742828 376.919983,282.381653 377.084015,284.186768 
	C379.664886,284.186768 381.968140,284.186798 384.271393,284.186798 
	C386.546631,284.186798 388.821899,284.186768 391.054047,284.186768 
	C391.688934,272.495483 387.970306,265.985016 379.853668,263.883484 
	C365.938812,260.280640 356.855560,267.440979 356.985443,281.810455 
	C357.036652,287.476532 359.305298,292.141907 363.074677,296.145325 
	C366.384430,299.660583 370.327484,302.686584 373.102081,306.564575 
	C375.292908,309.626709 376.519226,313.567993 377.360413,317.302094 
	C377.647003,318.574310 375.456390,320.404633 374.397675,321.979919 
	C373.313599,320.530426 371.552979,319.192932 371.290466,317.607391 
	C370.790314,314.586853 371.145416,311.424683 371.145416,308.320587 
	C366.093353,308.320587 361.698822,308.320587 357.006195,308.320587 
	C357.006195,311.284637 356.972809,313.925995 357.011810,316.566284 
	C357.211029,330.057404 363.001099,335.568176 376.561584,335.199860 
	C385.517456,334.956573 389.433136,330.946075 391.726196,318.956360 
M396.141052,289.500000 
	C396.141052,304.426880 396.141052,319.353760 396.141052,334.390198 
	C406.328217,334.390198 415.882965,334.390198 425.573486,334.390198 
	C425.573486,329.780304 425.573486,325.521759 425.573486,320.610413 
	C420.634064,320.610413 415.924103,320.610413 411.285583,320.610413 
	C411.285583,315.026245 411.285583,310.102448 411.285583,304.753510 
	C415.669373,304.753510 419.765381,304.753510 423.992035,304.753510 
	C423.992035,300.080017 423.992035,295.842468 423.992035,291.137939 
	C419.629395,291.137939 415.548004,291.137939 411.349182,291.137939 
	C411.349182,286.457367 411.349182,282.254089 411.349182,277.627655 
	C415.972595,277.627655 420.233551,277.627655 424.501465,277.627655 
	C424.501465,272.809448 424.501465,268.431549 424.501465,264.196655 
	C414.883087,264.196655 405.652344,264.196655 396.141052,264.196655 
	C396.141052,272.554352 396.141052,280.527191 396.141052,289.500000 
M153.977936,292.500000 
	C153.977936,306.431732 153.977936,320.363434 153.977936,334.511658 
	C163.998764,334.511658 173.423386,334.511658 183.177261,334.511658 
	C183.177261,329.934723 183.177261,325.531525 183.177261,320.627838 
	C178.385666,320.627838 173.788788,320.627838 169.005920,320.627838 
	C169.005920,315.207977 169.005920,310.286438 169.005920,304.748322 
	C173.422653,304.748322 177.638046,304.748322 181.681610,304.748322 
	C181.681610,299.887817 181.681610,295.653748 181.681610,290.954132 
	C177.218796,290.954132 173.137924,290.954132 169.080780,290.954132 
	C169.080780,286.391754 169.080780,282.311493 169.080780,277.757812 
	C173.603119,277.757812 177.849640,277.757812 182.231873,277.757812 
	C182.231873,272.883514 182.231873,268.500549 182.231873,264.188477 
	C172.650192,264.188477 163.425507,264.188477 153.977936,264.188477 
	C153.977936,273.542755 153.977936,282.521362 153.977936,292.500000 
M254.076126,291.179657 
	C250.296707,291.179657 246.517288,291.179657 242.517242,291.179657 
	C242.517242,286.514008 242.517242,282.438019 242.517242,277.740234 
	C247.130310,277.740234 251.512680,277.740234 255.894135,277.740234 
	C255.894135,272.842590 255.894135,268.569214 255.894135,264.128174 
	C246.452713,264.128174 237.244858,264.128174 227.945023,264.128174 
	C227.945023,287.682983 227.945023,310.926361 227.945023,334.382507 
	C237.724533,334.382507 247.265884,334.382507 256.864563,334.382507 
	C256.864563,329.759827 256.864563,325.487457 256.864563,320.563721 
	C251.949356,320.563721 247.242142,320.563721 242.590851,320.563721 
	C242.590851,314.983032 242.590851,310.064178 242.590851,304.597290 
	C247.141846,304.597290 251.373764,304.597290 256.250183,304.597290 
	C255.785080,299.786591 255.378464,295.580658 254.076126,291.179657 
M333.654755,241.467468 
	C333.654755,244.426590 333.654755,247.385727 333.654755,250.527237 
	C343.697540,250.527237 353.244202,250.527237 362.672546,250.527237 
	C362.672546,245.779129 362.672546,241.378494 362.672546,236.545013 
	C357.697449,236.545013 353.112640,236.545013 348.519531,236.545013 
	C348.519531,231.161102 348.519531,226.239807 348.519531,220.783661 
	C353.032867,220.783661 357.268890,220.783661 361.381226,220.783661 
	C361.381226,216.024551 361.381226,211.813583 361.381226,207.154099 
	C356.867554,207.154099 352.771423,207.154099 348.487885,207.154099 
	C348.487885,202.611526 348.487885,198.532593 348.487885,193.850189 
	C353.115784,193.850189 357.500641,193.850189 361.690826,193.850189 
	C361.690826,188.840714 361.690826,184.444489 361.690826,180.245087 
	C352.176514,180.245087 343.076355,180.245087 333.654694,180.245087 
	C333.654694,200.533463 333.654694,220.505676 333.654755,241.467468 
M321.620850,196.620605 
	C322.481476,191.230042 327.321564,195.643890 329.678589,193.096329 
	C329.678589,189.049622 329.678589,184.668243 329.678589,180.198273 
	C319.322449,180.198273 309.266937,180.198273 299.157104,180.198273 
	C299.157104,184.869232 299.157104,189.246124 299.157104,193.750229 
	C301.911804,193.910324 304.322998,194.050446 307.262268,194.221252 
	C307.262268,213.225037 307.262268,231.911774 307.262268,250.623459 
	C312.243347,250.623459 316.663696,250.623459 321.615356,250.623459 
	C321.615356,232.783020 321.615356,215.193024 321.620850,196.620605 
M339.011169,295.500000 
	C339.011169,308.416107 339.011169,321.332245 339.011169,334.404724 
	C343.933502,334.404724 348.318237,334.404724 352.685913,334.404724 
	C352.685913,310.736633 352.685913,287.392761 352.685913,264.023651 
	C348.059265,264.023651 343.787354,264.023651 339.011169,264.023651 
	C339.011169,274.313232 339.011169,284.406616 339.011169,295.500000 
M207.435028,220.858566 
	C203.031906,220.858566 198.628799,220.858566 194.305847,220.858566 
	C194.305847,224.375992 194.305847,227.241348 194.305847,230.045563 
	C201.252182,230.045563 207.818649,230.045563 214.582672,230.045563 
	C214.582672,226.933533 214.582672,224.068863 214.582672,220.858536 
	C212.331421,220.858536 210.370865,220.858536 207.435028,220.858566 
M176.916702,352.051453 
	C176.708038,352.150269 176.505829,352.282440 176.286270,352.324951 
	C176.229797,352.335907 176.138565,352.046509 176.029617,351.925415 
	C174.369644,350.080353 176.085510,345.463867 171.545349,345.887878 
	C171.545349,349.440796 171.545349,352.690582 171.545349,355.940399 
	C171.875458,355.960754 172.205582,355.981079 172.535690,356.001434 
	C172.813889,354.557617 173.092072,353.113770 173.421844,351.402222 
	C174.295807,353.127838 175.063263,354.643158 176.446259,357.373871 
	C177.835129,354.611237 178.720108,352.850922 179.715790,350.870361 
	C179.950455,352.816650 180.141647,354.402252 180.332825,355.987885 
	C180.740921,355.930206 181.149002,355.872559 181.557098,355.814911 
	C181.557098,352.517548 181.557098,349.220184 181.557098,345.922821 
	C181.066833,345.688385 180.576569,345.453949 180.086304,345.219482 
	C179.110138,347.269714 178.133972,349.319946 176.916702,352.051453 
M206.176239,356.002014 
	C206.978439,353.354340 208.517578,350.668579 208.383301,348.069275 
	C208.238266,345.261383 203.596466,344.152527 202.301651,346.572235 
	C201.178375,348.671356 201.271378,351.646545 201.562439,354.148926 
	C201.657852,354.969147 204.059769,355.521057 206.176239,356.002014 
M194.954391,356.191895 
	C199.530319,355.344238 201.805740,350.710480 199.217484,347.167725 
	C198.556305,346.262695 196.977722,345.391418 195.969833,345.537018 
	C194.705658,345.719727 192.562500,347.021179 192.601181,347.743195 
	C192.750214,350.524750 193.618225,353.267731 194.954391,356.191895 
M210.629807,348.268158 
	C210.539108,349.839905 210.059006,351.525452 210.475006,352.949158 
	C210.839218,354.195679 212.120468,355.914886 213.159180,356.036469 
	C214.460983,356.188843 216.534622,355.263672 217.148041,354.170898 
	C217.718414,353.154846 217.177628,351.073273 216.432449,349.902161 
	C215.850189,348.987091 214.205490,348.748077 212.375229,347.906158 
	C214.535110,347.394775 215.868896,347.078949 217.202698,346.763153 
	C217.064240,346.199158 216.925781,345.635193 216.787323,345.071198 
	C214.783432,345.867035 212.779526,346.662842 210.629807,348.268158 
M309.857483,349.994232 
	C308.513306,347.013153 305.938019,347.018799 304.254913,348.836792 
	C303.134399,350.047089 302.627991,353.532440 303.497955,354.474365 
	C304.765198,355.846405 307.518097,355.846283 309.973236,356.523804 
	C309.973236,353.849792 309.973236,352.356079 309.857483,349.994232 
M188.911301,346.145294 
	C187.365494,346.508453 185.819687,346.871613 185.559189,346.932831 
	C186.576767,350.659943 187.311218,353.350067 188.045654,356.040161 
	C188.438736,355.962158 188.831833,355.884186 189.224915,355.806183 
	C189.224915,352.852692 189.224915,349.899170 188.911301,346.145294 
z"/>
<path fill="#F0F0F0" opacity="1.000000" stroke="none" 
	d="
M106.993622,189.998398 
	C109.372810,187.636642 110.686142,185.013504 110.118195,181.439911 
	C109.915421,180.164062 111.079056,178.671051 111.619003,177.277161 
	C112.898766,178.055542 114.235786,178.755615 115.440720,179.636368 
	C116.455788,180.378342 117.317360,181.330307 118.613663,181.890366 
	C118.980461,181.591415 118.914574,181.537704 118.876999,181.612411 
	C118.839424,181.687119 118.956497,181.806564 118.572220,181.713715 
	C118.162773,182.062271 118.137604,182.503662 118.201447,183.270355 
	C120.872093,187.067810 123.307594,190.666473 126.131676,193.928741 
	C126.898064,194.814041 128.837830,194.683563 130.538467,195.218170 
	C132.236374,195.636230 133.634842,195.855423 135.219666,196.315918 
	C135.993546,196.682785 136.581070,196.808365 137.451843,196.882645 
	C136.682907,194.623718 135.918060,192.208069 134.507431,190.260040 
	C132.656006,187.703278 130.295609,185.515091 128.048950,183.060822 
	C127.943794,182.953247 127.727539,182.744064 127.727623,182.390594 
	C126.833580,181.017303 125.939445,179.997482 125.045319,178.977676 
	C124.525673,176.498199 125.606644,174.759689 127.604057,176.951706 
	C132.942825,182.810562 137.733826,189.168869 142.724808,195.343033 
	C142.914795,195.578064 143.007202,195.963120 143.000885,196.275345 
	C142.797791,206.326706 142.576874,216.377701 141.707916,225.898315 
	C135.918045,225.100571 130.779678,224.808914 125.637230,224.645508 
	C125.406075,224.638153 125.137985,225.793259 124.887100,226.406921 
	C124.258133,225.118057 123.193214,223.864639 123.084991,222.533432 
	C122.802261,219.055725 123.038605,215.538956 122.863098,212.048050 
	C122.779610,210.387573 122.229416,208.750565 121.152420,207.279724 
	C121.152420,247.271973 121.101692,287.264374 121.217865,327.256287 
	C121.232071,332.148163 118.949577,334.655548 114.637497,335.902283 
	C105.124260,338.652832 97.102074,335.117096 92.832672,326.263519 
	C89.872261,320.124512 86.838539,314.013489 84.143280,307.758209 
	C83.265404,305.720795 83.048752,303.267944 83.044533,301.004120 
	C82.979340,266.018585 82.972618,231.032806 83.065025,196.047394 
	C83.070541,193.957001 84.026825,191.869110 84.540695,189.780060 
	C86.118011,191.437851 87.695320,193.095642 89.650078,195.184113 
	C92.323135,199.391449 94.618752,203.168121 96.943398,206.992569 
	C98.382729,206.628479 99.627769,206.313553 100.837387,206.444458 
	C104.859329,207.221207 108.916687,207.552155 113.323875,207.920044 
	C117.942070,205.511322 113.508766,203.774323 113.105270,201.363800 
	C111.927261,198.985306 110.808464,196.947296 109.621040,194.625671 
	C109.240120,193.840836 108.927826,193.339615 108.591034,192.667648 
	C108.357468,192.212097 108.148407,191.927292 107.869392,191.325287 
	C107.530830,190.671524 107.262222,190.334961 106.993622,189.998398 
M98.466698,242.124268 
	C98.671593,242.686371 98.876488,243.248489 99.827293,244.067032 
	C101.878288,244.341629 103.929283,244.616226 106.652466,245.069992 
	C107.111092,245.023346 107.569717,244.976700 108.878830,245.045929 
	C111.905243,244.656967 114.931648,244.268005 118.655144,243.898987 
	C118.933701,243.429428 119.212265,242.959854 119.490829,242.490295 
	C118.759514,242.351120 118.028191,242.211960 117.755165,241.430389 
	C118.573975,239.707657 119.392776,237.984924 120.319519,236.035095 
	C112.098549,236.035095 105.190605,236.035095 97.545654,236.035095 
	C98.082039,238.107086 98.587898,240.061157 98.466698,242.124268 
M94.069176,216.693558 
	C94.069176,252.047592 94.069176,287.401611 94.069176,322.755646 
	C94.527641,322.749695 94.986115,322.743713 95.444580,322.737732 
	C95.444580,285.855042 95.444580,248.972336 95.444580,212.089630 
	C95.108093,212.077484 94.771614,212.065353 94.435127,212.053223 
	C94.313194,213.283981 94.191254,214.514755 94.069176,216.693558 
M106.687798,314.880615 
	C110.926361,314.637024 115.164917,314.393433 119.429749,314.148315 
	C119.429749,311.101868 119.429749,308.773499 119.429749,306.834290 
	C112.140121,306.834290 105.270058,306.834290 98.171333,306.834290 
	C98.171333,308.922607 98.171333,311.307190 98.171333,313.841217 
	C100.883621,314.203979 103.323677,314.530334 106.687798,314.880615 
M119.293846,202.305496 
	C117.582542,203.775299 117.582542,203.775299 120.933464,205.077911 
	C120.468369,204.146011 120.112206,203.432388 119.293846,202.305496 
M116.430450,197.836319 
	C116.430450,198.743637 116.430450,199.650970 116.430450,200.558289 
	C116.796387,200.516724 117.162323,200.475159 117.528259,200.433594 
	C117.331963,199.651001 117.135674,198.868408 116.430450,197.836319 
M112.064598,192.464966 
	C112.484695,192.785065 112.904793,193.105164 113.324898,193.425262 
	C113.230133,192.705002 113.135368,191.984741 113.040604,191.264481 
	C112.702942,191.471695 112.365280,191.678925 112.064598,192.464966 
M114.372055,195.524841 
	C114.159859,195.470352 113.947655,195.415863 113.735458,195.361374 
	C113.871834,195.495331 114.008209,195.629288 114.372055,195.524841 
z"/>
<path fill="#EEEEEF" opacity="1.000000" stroke="none" 
	d="
M240.967590,206.799713 
	C241.065216,197.806473 241.065216,189.181168 241.065216,180.242432 
	C245.826187,180.242432 250.076920,180.242432 254.711807,180.242432 
	C254.711807,203.506470 254.711807,226.875671 254.711807,250.558044 
	C250.323471,250.558044 245.909012,250.558044 241.099838,250.558044 
	C239.042206,240.573227 236.973846,230.536362 234.905502,220.499512 
	C234.655212,220.517517 234.404938,220.535522 234.154663,220.553543 
	C234.154663,230.488571 234.154663,240.423599 234.154663,250.608337 
	C229.445145,250.608337 225.174515,250.608337 220.492752,250.608337 
	C220.492752,227.297287 220.492752,203.939392 220.492752,180.251404 
	C225.189240,180.251404 229.927689,180.251404 234.778397,180.251404 
	C236.808578,189.222000 238.839279,198.194839 240.967590,206.799713 
z"/>
<path fill="#ECECEE" opacity="1.000000" stroke="none" 
	d="
M291.592743,266.248291 
	C298.470032,274.809479 297.986908,290.745972 291.842224,296.758667 
	C293.156677,300.396149 295.107666,303.483795 295.261292,306.658447 
	C295.702637,315.778625 295.416901,324.933960 295.416901,334.404114 
	C290.504150,334.404114 286.111725,334.404114 281.082550,334.404114 
	C281.082550,325.375000 281.056122,316.445099 281.096954,307.515503 
	C281.111176,304.402405 280.357971,302.233643 276.072418,303.049286 
	C276.072418,313.453430 276.072418,323.866211 276.072418,334.500732 
	C271.133240,334.500732 266.688049,334.500732 261.845398,334.500732 
	C261.845398,311.094696 261.845398,287.718048 261.845398,263.673981 
	C271.703552,264.971191 281.724518,261.476593 291.592743,266.248291 
M276.141846,278.989960 
	C276.141846,282.564911 276.141846,286.139893 276.141846,289.691132 
	C281.754547,289.818420 282.897156,287.908630 282.137451,281.007202 
	C281.677338,276.827423 279.664062,276.105286 276.141846,278.989960 
z"/>
<path fill="#EFEFF0" opacity="1.000000" stroke="none" 
	d="
M177.534302,253.227570 
	C175.221375,252.458832 173.223511,251.393219 171.243088,251.424744 
	C160.633148,251.593689 153.918381,246.659927 153.390350,236.163284 
	C152.688416,222.209427 152.721222,208.171051 153.373764,194.212708 
	C153.838959,184.262238 160.898544,178.927780 171.041748,179.184998 
	C181.235550,179.443527 187.612152,185.007019 187.915359,195.087662 
	C188.320770,208.565659 188.162430,222.069717 187.855148,235.553665 
	C187.778580,238.913406 186.201492,242.238953 185.168365,246.128876 
	C186.384872,247.026840 188.082474,248.279938 190.285248,249.905945 
	C188.787689,252.550171 187.273895,255.223053 185.466705,258.414001 
	C182.768997,256.649536 180.313202,255.043274 177.534302,253.227570 
M173.733810,208.514282 
	C173.694107,204.520676 173.913910,200.498108 173.473175,196.549255 
	C173.320007,195.176849 171.531921,193.986938 170.490524,192.713684 
	C169.436371,193.999893 168.257706,195.208450 167.385193,196.607910 
	C166.999329,197.226776 167.193390,198.232330 167.192703,199.062393 
	C167.183823,209.716812 167.158325,220.371399 167.218338,231.025482 
	C167.227570,232.667160 167.347977,234.433533 167.977493,235.901932 
	C168.391342,236.867218 169.754242,237.834564 170.801529,237.972931 
	C171.479553,238.062546 172.785568,236.785721 173.050171,235.895325 
	C173.560989,234.176514 173.685425,232.299286 173.702942,230.485153 
	C173.770416,223.493835 173.732391,216.501480 173.733810,208.514282 
z"/>
<path fill="#EDEDEF" opacity="1.000000" stroke="none" 
	d="
M295.786011,231.685135 
	C295.565613,233.960892 295.441620,235.791336 295.110748,237.583603 
	C293.369263,247.016647 287.498810,251.568481 277.411224,251.375443 
	C268.278900,251.200668 261.606873,246.147171 261.188232,237.137650 
	C260.502228,222.375061 260.549866,207.541672 261.129486,192.771164 
	C261.460358,184.339249 268.048279,179.548264 277.413635,179.181915 
	C286.931366,178.809601 294.084137,183.321823 294.901062,191.867569 
	C295.925781,202.586823 295.564728,213.439209 295.781250,224.234528 
	C295.827942,226.562851 295.787323,228.892944 295.786011,231.685135 
M281.069061,196.896835 
	C280.006592,195.538528 278.944122,194.180222 277.881683,192.821915 
	C276.896454,194.312576 275.086365,195.787018 275.056671,197.296509 
	C274.821259,209.253754 274.921722,221.217667 274.932343,233.179535 
	C274.932922,233.839920 274.819305,234.678650 275.161896,235.125015 
	C275.985840,236.198547 277.020233,237.801010 278.024841,237.842087 
	C278.943665,237.879654 280.375977,236.305511 280.784454,235.157761 
	C281.317596,233.659637 281.136749,231.882019 281.139130,230.224472 
	C281.154694,219.425598 281.136627,208.626694 281.069061,196.896835 
z"/>
<path fill="#ECECEE" opacity="1.000000" stroke="none" 
	d="
M208.049316,327.950317 
	C207.188736,323.052307 206.372665,318.579742 205.556595,314.107178 
	C205.033524,314.135956 204.510452,314.164764 203.987381,314.193542 
	C202.998642,319.957581 201.853561,325.701080 201.092514,331.495026 
	C200.753464,334.076172 199.719162,334.879761 197.250778,334.775085 
	C193.621826,334.621185 189.981506,334.735382 185.802887,334.735382 
	C187.630539,325.567444 188.827026,316.812500 191.203568,308.390564 
	C193.765274,299.312500 192.400742,290.638062 190.646820,281.803711 
	C189.514191,276.098633 188.561569,270.357819 187.445251,264.173035 
	C192.169647,264.173035 196.544739,264.173035 201.468765,264.173035 
	C202.453537,270.202332 203.475616,276.459991 204.497696,282.717682 
	C204.824402,282.726410 205.151108,282.735138 205.477814,282.743866 
	C206.347122,276.639374 207.216446,270.534882 208.132553,264.101685 
	C212.713257,264.101685 217.267776,264.101685 222.257278,264.101685 
	C220.807770,272.060455 219.737717,279.799927 217.922104,287.360352 
	C216.235367,294.384064 216.803543,301.111481 218.381027,308.007935 
	C220.341766,316.579895 221.912872,325.240967 223.745178,334.324219 
	C218.883575,334.324219 214.349075,334.324219 209.287399,334.324219 
	C208.920029,332.493317 208.506943,330.434570 208.049316,327.950317 
z"/>
<path fill="#EFEFF0" opacity="1.000000" stroke="none" 
	d="
M331.892334,303.947144 
	C333.339508,304.880493 335.075562,305.771881 335.126831,306.751434 
	C335.369751,311.393005 335.382202,316.075073 335.049652,320.712128 
	C334.443848,329.158569 329.415497,334.227814 321.234375,335.078461 
	C310.636719,336.180359 303.404755,332.235748 301.125488,323.773895 
	C300.358124,320.925049 300.105225,317.864624 300.091400,314.898712 
	C300.038605,303.586121 299.739563,292.248505 300.358093,280.965515 
	C301.144836,266.613983 310.972473,259.981171 324.336365,264.060791 
	C330.436188,265.922913 334.570679,270.769562 334.944824,277.127197 
	C335.226227,281.909058 335.000488,286.720734 335.000488,291.842957 
	C330.399048,291.842957 325.996979,291.842957 320.881561,291.842957 
	C320.881561,288.334869 321.175354,284.707245 320.749084,281.166351 
	C320.555908,279.561646 318.933685,278.128967 317.959747,276.618256 
	C316.813721,278.116089 314.705963,279.593658 314.673859,281.114990 
	C314.417603,293.253448 314.448822,305.402405 314.706421,317.541473 
	C314.738220,319.040070 316.618805,320.499420 317.642639,321.976959 
	C318.705444,320.511505 320.530304,319.121735 320.684814,317.566101 
	C321.108795,313.297913 320.831055,308.959991 320.831055,303.945831 
	C324.564545,303.945831 327.984741,303.945831 331.892334,303.947144 
z"/>
<path fill="#EDEDEE" opacity="1.000000" stroke="none" 
	d="
M391.653992,319.386169 
	C389.433136,330.946075 385.517456,334.956573 376.561584,335.199860 
	C363.001099,335.568176 357.211029,330.057404 357.011810,316.566284 
	C356.972809,313.925995 357.006195,311.284637 357.006195,308.320587 
	C361.698822,308.320587 366.093353,308.320587 371.145416,308.320587 
	C371.145416,311.424683 370.790314,314.586853 371.290466,317.607391 
	C371.552979,319.192932 373.313599,320.530426 374.397675,321.979919 
	C375.456390,320.404633 377.647003,318.574310 377.360413,317.302094 
	C376.519226,313.567993 375.292908,309.626709 373.102081,306.564575 
	C370.327484,302.686584 366.384430,299.660583 363.074677,296.145325 
	C359.305298,292.141907 357.036652,287.476532 356.985443,281.810455 
	C356.855560,267.440979 365.938812,260.280640 379.853668,263.883484 
	C387.970306,265.985016 391.688934,272.495483 391.054047,284.186768 
	C388.821899,284.186768 386.546631,284.186798 384.271393,284.186798 
	C381.968140,284.186798 379.664886,284.186768 377.084015,284.186768 
	C376.919983,282.381653 377.169586,280.742828 376.551361,279.556152 
	C375.930756,278.364960 374.445190,277.624390 373.338715,276.686340 
	C372.542480,277.924713 370.908752,279.343445 371.128326,280.363068 
	C371.555847,282.348206 372.747437,284.351044 374.118408,285.910645 
	C376.529755,288.653870 379.201202,291.199158 381.963226,293.597595 
	C389.735779,300.347076 393.153687,308.700714 391.653992,319.386169 
z"/>
<path fill="#F0F0F0" opacity="1.000000" stroke="none" 
	d="
M141.138550,227.008209 
	C141.847519,228.999786 143.135132,230.980789 143.171783,232.984680 
	C143.414459,246.246582 143.391281,259.513397 143.449478,272.778625 
	C143.520035,288.861969 143.585480,304.945343 143.328552,321.502991 
	C142.681564,322.261780 142.359146,322.546326 141.580154,322.706360 
	C136.118179,322.737915 131.112778,322.893921 125.810455,323.023254 
	C125.116638,322.984863 124.719711,322.973083 124.322792,322.961304 
	C123.907089,291.846619 123.485489,260.731964 123.103653,229.616867 
	C123.091957,228.664291 123.494194,227.706635 124.443115,227.166534 
	C125.368347,228.207062 125.534615,229.371323 125.742302,229.378769 
	C130.604294,229.552826 135.471588,229.646591 140.334366,229.559326 
	C140.617584,229.554260 140.871170,227.896729 141.138550,227.008209 
z"/>
<path fill="#ECECEE" opacity="1.000000" stroke="none" 
	d="
M396.141052,289.000000 
	C396.141052,280.527191 396.141052,272.554352 396.141052,264.196655 
	C405.652344,264.196655 414.883087,264.196655 424.501465,264.196655 
	C424.501465,268.431549 424.501465,272.809448 424.501465,277.627655 
	C420.233551,277.627655 415.972595,277.627655 411.349182,277.627655 
	C411.349182,282.254089 411.349182,286.457367 411.349182,291.137939 
	C415.548004,291.137939 419.629395,291.137939 423.992035,291.137939 
	C423.992035,295.842468 423.992035,300.080017 423.992035,304.753510 
	C419.765381,304.753510 415.669373,304.753510 411.285583,304.753510 
	C411.285583,310.102448 411.285583,315.026245 411.285583,320.610413 
	C415.924103,320.610413 420.634064,320.610413 425.573486,320.610413 
	C425.573486,325.521759 425.573486,329.780304 425.573486,334.390198 
	C415.882965,334.390198 406.328217,334.390198 396.141052,334.390198 
	C396.141052,319.353760 396.141052,304.426880 396.141052,289.000000 
z"/>
<path fill="#ECECEE" opacity="1.000000" stroke="none" 
	d="
M153.977936,292.000000 
	C153.977936,282.521362 153.977936,273.542755 153.977936,264.188477 
	C163.425507,264.188477 172.650192,264.188477 182.231873,264.188477 
	C182.231873,268.500549 182.231873,272.883514 182.231873,277.757812 
	C177.849640,277.757812 173.603119,277.757812 169.080780,277.757812 
	C169.080780,282.311493 169.080780,286.391754 169.080780,290.954132 
	C173.137924,290.954132 177.218796,290.954132 181.681610,290.954132 
	C181.681610,295.653748 181.681610,299.887817 181.681610,304.748322 
	C177.638046,304.748322 173.422653,304.748322 169.005920,304.748322 
	C169.005920,310.286438 169.005920,315.207977 169.005920,320.627838 
	C173.788788,320.627838 178.385666,320.627838 183.177261,320.627838 
	C183.177261,325.531525 183.177261,329.934723 183.177261,334.511658 
	C173.423386,334.511658 163.998764,334.511658 153.977936,334.511658 
	C153.977936,320.363434 153.977936,306.431732 153.977936,292.000000 
z"/>
<path fill="#EEEEEF" opacity="1.000000" stroke="none" 
	d="
M254.523987,291.277191 
	C255.378464,295.580658 255.785080,299.786591 256.250183,304.597290 
	C251.373764,304.597290 247.141846,304.597290 242.590851,304.597290 
	C242.590851,310.064178 242.590851,314.983032 242.590851,320.563721 
	C247.242142,320.563721 251.949356,320.563721 256.864563,320.563721 
	C256.864563,325.487457 256.864563,329.759827 256.864563,334.382507 
	C247.265884,334.382507 237.724533,334.382507 227.945023,334.382507 
	C227.945023,310.926361 227.945023,287.682983 227.945023,264.128174 
	C237.244858,264.128174 246.452713,264.128174 255.894135,264.128174 
	C255.894135,268.569214 255.894135,272.842590 255.894135,277.740234 
	C251.512680,277.740234 247.130310,277.740234 242.517242,277.740234 
	C242.517242,282.438019 242.517242,286.514008 242.517242,291.179657 
	C246.517288,291.179657 250.296707,291.179657 254.523987,291.277191 
z"/>
<path fill="#EFEFF0" opacity="1.000000" stroke="none" 
	d="
M333.654724,240.972672 
	C333.654694,220.505676 333.654694,200.533463 333.654694,180.245087 
	C343.076355,180.245087 352.176514,180.245087 361.690826,180.245087 
	C361.690826,184.444489 361.690826,188.840714 361.690826,193.850189 
	C357.500641,193.850189 353.115784,193.850189 348.487885,193.850189 
	C348.487885,198.532593 348.487885,202.611526 348.487885,207.154099 
	C352.771423,207.154099 356.867554,207.154099 361.381226,207.154099 
	C361.381226,211.813583 361.381226,216.024551 361.381226,220.783661 
	C357.268890,220.783661 353.032867,220.783661 348.519531,220.783661 
	C348.519531,226.239807 348.519531,231.161102 348.519531,236.545013 
	C353.112640,236.545013 357.697449,236.545013 362.672546,236.545013 
	C362.672546,241.378494 362.672546,245.779129 362.672546,250.527237 
	C353.244202,250.527237 343.697540,250.527237 333.654755,250.527237 
	C333.654755,247.385727 333.654755,244.426590 333.654724,240.972672 
z"/>
<path fill="#EAEAED" opacity="1.000000" stroke="none" 
	d="
M321.618103,197.111816 
	C321.615356,215.193024 321.615356,232.783020 321.615356,250.623459 
	C316.663696,250.623459 312.243347,250.623459 307.262268,250.623459 
	C307.262268,231.911774 307.262268,213.225037 307.262268,194.221252 
	C304.322998,194.050446 301.911804,193.910324 299.157104,193.750229 
	C299.157104,189.246124 299.157104,184.869232 299.157104,180.198273 
	C309.266937,180.198273 319.322449,180.198273 329.678589,180.198273 
	C329.678589,184.668243 329.678589,189.049622 329.678589,193.096329 
	C327.321564,195.643890 322.481476,191.230042 321.618103,197.111816 
z"/>
<path fill="#EFEFF0" opacity="1.000000" stroke="none" 
	d="
M339.011169,295.000000 
	C339.011169,284.406616 339.011169,274.313232 339.011169,264.023651 
	C343.787354,264.023651 348.059265,264.023651 352.685913,264.023651 
	C352.685913,287.392761 352.685913,310.736633 352.685913,334.404724 
	C348.318237,334.404724 343.933502,334.404724 339.011169,334.404724 
	C339.011169,321.332245 339.011169,308.416107 339.011169,295.000000 
z"/>
<path fill="#EFEFF0" opacity="1.000000" stroke="none" 
	d="
M207.922668,220.858551 
	C210.370865,220.858536 212.331421,220.858536 214.582672,220.858536 
	C214.582672,224.068863 214.582672,226.933533 214.582672,230.045563 
	C207.818649,230.045563 201.252182,230.045563 194.305847,230.045563 
	C194.305847,227.241348 194.305847,224.375992 194.305847,220.858566 
	C198.628799,220.858566 203.031906,220.858566 207.922668,220.858551 
z"/>
<path fill="#DADAE1" opacity="1.000000" stroke="none" 
	d="
M142.036713,322.830841 
	C142.359146,322.546326 142.681564,322.261780 143.228149,321.956604 
	C143.559128,323.753510 143.758667,325.571320 143.752518,327.388489 
	C143.741501,330.638031 144.692108,335.007019 140.428741,335.749481 
	C135.930420,336.532867 131.079636,336.075562 126.539497,335.273468 
	C125.432716,335.077942 124.700478,331.464874 124.237556,329.327515 
	C123.858406,327.576874 124.135689,325.684052 124.222382,323.407776 
	C124.719711,322.973083 125.116638,322.984863 125.752228,323.448853 
	C125.309135,327.060486 126.673897,328.542206 129.815598,328.547302 
	C133.852753,328.553894 137.889923,328.548920 142.036713,328.548920 
	C142.036713,325.815887 142.036713,324.323364 142.036713,322.830841 
z"/>
<path fill="#AAABC1" opacity="1.000000" stroke="none" 
	d="
M135.033325,196.074615 
	C133.634842,195.855423 132.236374,195.636230 130.248001,195.018829 
	C126.076927,190.259644 122.495750,185.898682 118.914574,181.537704 
	C118.914574,181.537704 118.980461,181.591415 118.981888,181.633163 
	C119.045837,180.584579 119.108360,179.494247 119.201973,177.861755 
	C121.183258,178.746262 122.728165,179.442520 124.282997,180.115829 
	C124.391045,180.162628 124.622002,180.081558 124.707520,179.983185 
	C124.804688,179.871429 124.802513,179.673309 124.944420,179.245209 
	C125.939445,179.997482 126.833580,181.017303 127.585373,182.525406 
	C127.497841,183.235046 127.552643,183.456406 127.607452,183.677765 
	C127.789673,183.507980 127.971886,183.338196 128.154114,183.168396 
	C130.295609,185.515091 132.656006,187.703278 134.507431,190.260040 
	C135.918060,192.208069 136.682907,194.623718 137.376785,196.580933 
	C136.356781,196.245224 135.695053,196.159927 135.033325,196.074615 
z"/>
<path fill="#232766" opacity="1.000000" stroke="none" 
	d="
M141.141388,227.053131 
	C140.871170,227.896729 140.617584,229.554260 140.334366,229.559326 
	C135.471588,229.646591 130.604294,229.552826 125.742302,229.378769 
	C125.534615,229.371323 125.368347,228.207062 125.050385,227.058533 
	C124.917969,226.535355 124.898071,226.315826 124.892586,226.361374 
	C125.137985,225.793259 125.406075,224.638153 125.637230,224.645508 
	C130.779678,224.808914 135.918045,225.100571 141.099106,226.040131 
	C141.170151,226.720978 141.171219,226.849548 141.141388,227.053131 
z"/>
<path fill="#B7B8CA" opacity="1.000000" stroke="none" 
	d="
M100.872803,205.998627 
	C99.627769,206.313553 98.382729,206.628479 96.943398,206.992569 
	C94.618752,203.168121 92.323135,199.391449 90.002197,195.245422 
	C90.108345,193.644852 90.239822,192.413651 90.283119,192.008194 
	C93.006485,193.153641 95.614723,194.250671 98.659225,195.306580 
	C99.095482,195.265457 99.004936,195.431717 98.915108,195.691376 
	C98.876854,196.126572 98.928436,196.302109 98.848633,196.271881 
	C98.572327,196.139893 98.427399,196.213654 98.282478,196.287430 
	C98.513634,196.440491 98.744789,196.593552 98.932732,197.106171 
	C99.207451,198.084595 99.525391,198.703461 99.913818,199.571182 
	C100.433746,199.991653 100.883179,200.163269 101.327133,200.574829 
	C101.217133,201.136887 101.247276,201.445938 101.484604,202.139221 
	C101.329002,203.690567 101.100906,204.844604 100.872803,205.998627 
z"/>
<path fill="#CBCBD7" opacity="1.000000" stroke="none" 
	d="
M236.963547,349.044037 
	C239.922684,348.315277 243.126984,345.925446 245.357086,350.378906 
	C245.461426,350.587280 247.314987,349.919678 247.953827,349.760010 
	C248.633957,351.313782 249.400269,353.055878 250.141846,354.808411 
	C250.160172,354.851746 249.904312,355.011078 249.526093,355.322021 
	C248.634811,354.335815 247.721619,353.325348 246.505219,351.979370 
	C244.314819,357.018341 240.863464,357.260651 236.368347,354.260742 
	C236.022446,353.261444 236.070023,352.476990 236.466248,351.573242 
	C236.867493,350.627045 236.920074,349.800110 236.988907,348.993469 
	C237.005142,349.013794 236.963547,349.044037 236.963547,349.044037 
z"/>
<path fill="#DADAE1" opacity="1.000000" stroke="none" 
	d="
M177.037262,351.710815 
	C178.133972,349.319946 179.110138,347.269714 180.086304,345.219482 
	C180.576569,345.453949 181.066833,345.688385 181.557098,345.922821 
	C181.557098,349.220184 181.557098,352.517548 181.557098,355.814911 
	C181.149002,355.872559 180.740921,355.930206 180.332825,355.987885 
	C180.141647,354.402252 179.950455,352.816650 179.715790,350.870361 
	C178.720108,352.850922 177.835129,354.611237 176.446259,357.373871 
	C175.063263,354.643158 174.295807,353.127838 173.421844,351.402222 
	C173.092072,353.113770 172.813889,354.557617 172.535690,356.001434 
	C172.205582,355.981079 171.875458,355.960754 171.545349,355.940399 
	C171.545349,352.690582 171.545349,349.440796 171.545349,345.887878 
	C176.085510,345.463867 174.369644,350.080353 176.029617,351.925415 
	C176.138565,352.046509 176.229797,352.335907 176.286270,352.324951 
	C176.505829,352.282440 176.708038,352.150269 177.037262,351.710815 
z"/>
<path fill="#CBCBD7" opacity="1.000000" stroke="none" 
	d="
M205.791565,356.098816 
	C204.059769,355.521057 201.657852,354.969147 201.562439,354.148926 
	C201.271378,351.646545 201.178375,348.671356 202.301651,346.572235 
	C203.596466,344.152527 208.238266,345.261383 208.383301,348.069275 
	C208.517578,350.668579 206.978439,353.354340 205.791565,356.098816 
z"/>
<path fill="#CBCBD7" opacity="1.000000" stroke="none" 
	d="
M194.586288,356.108521 
	C193.618225,353.267731 192.750214,350.524750 192.601181,347.743195 
	C192.562500,347.021179 194.705658,345.719727 195.969833,345.537018 
	C196.977722,345.391418 198.556305,346.262695 199.217484,347.167725 
	C201.805740,350.710480 199.530319,355.344238 194.586288,356.108521 
z"/>
<path fill="#D3D4DD" opacity="1.000000" stroke="none" 
	d="
M99.004936,195.431717 
	C99.004936,195.431717 99.095482,195.265457 99.066940,195.175201 
	C99.053688,191.142319 101.277763,190.998276 104.532997,192.049225 
	C104.853523,192.022095 104.824020,192.139755 104.890915,192.476883 
	C105.953781,194.549286 106.949753,196.284561 107.903244,198.383514 
	C108.613640,201.038818 109.366516,203.330444 110.119385,205.622070 
	C109.692764,205.803711 109.266136,205.985352 108.839508,206.166992 
	C107.770569,204.569580 106.701637,202.972153 105.503761,201.138062 
	C105.035965,200.524429 104.697105,200.147461 104.362366,199.740753 
	C104.366493,199.711044 104.381836,199.653046 104.290298,199.285980 
	C102.809631,198.579483 101.420517,198.240051 99.983231,197.565735 
	C99.625015,196.631134 99.314980,196.031433 99.004936,195.431717 
z"/>
<path fill="#CBCBD7" opacity="1.000000" stroke="none" 
	d="
M210.702728,347.863403 
	C212.779526,346.662842 214.783432,345.867035 216.787323,345.071198 
	C216.925781,345.635193 217.064240,346.199158 217.202698,346.763153 
	C215.868896,347.078949 214.535110,347.394775 212.375229,347.906158 
	C214.205490,348.748077 215.850189,348.987091 216.432449,349.902161 
	C217.177628,351.073273 217.718414,353.154846 217.148041,354.170898 
	C216.534622,355.263672 214.460983,356.188843 213.159180,356.036469 
	C212.120468,355.914886 210.839218,354.195679 210.475006,352.949158 
	C210.059006,351.525452 210.539108,349.839905 210.702728,347.863403 
M214.504227,351.073700 
	C213.504623,351.386017 212.505005,351.698334 211.051727,352.152405 
	C213.190628,354.202271 214.773071,356.133972 214.504227,351.073700 
z"/>
<path fill="#EAEAED" opacity="1.000000" stroke="none" 
	d="
M281.052612,355.849579 
	C281.028961,354.786133 281.023926,353.721893 280.978119,352.659393 
	C280.851013,349.713470 282.122070,347.476135 285.145111,348.050537 
	C286.633789,348.333405 288.595032,350.526428 288.828186,352.082001 
	C289.279755,355.095215 287.111481,356.453674 284.121979,356.085236 
	C283.336273,355.988403 282.595612,355.525757 281.424500,355.505615 
	C281.014771,355.780121 281.052612,355.849579 281.052612,355.849579 
z"/>
<path fill="#D3D4DD" opacity="1.000000" stroke="none" 
	d="
M236.117584,351.692505 
	C236.070023,352.476990 236.022446,353.261444 235.966248,354.438934 
	C233.093979,357.286926 230.812775,356.872620 228.393326,352.804077 
	C230.726624,353.502594 232.207306,353.945862 234.966522,354.771881 
	C233.752670,353.097107 233.333328,352.424622 232.821732,351.831726 
	C231.657822,350.482880 230.448624,349.173096 229.257812,347.847443 
	C230.233170,347.068207 231.458466,345.468170 232.133926,345.673859 
	C233.735535,346.161530 235.076355,347.505615 236.743073,348.773804 
	C236.963547,349.044037 237.005142,349.013794 236.697723,348.837219 
	C235.739883,348.643677 235.089447,348.626709 234.281952,348.294556 
	C233.330338,347.912231 232.535782,347.845093 231.741226,347.777954 
	C232.257889,348.407715 232.774536,349.037506 233.565475,349.795807 
	C234.599030,350.513733 235.358307,351.103119 236.117584,351.692505 
z"/>
<path fill="#DADAE1" opacity="1.000000" stroke="none" 
	d="
M309.915344,350.428314 
	C309.973236,352.356079 309.973236,353.849792 309.973236,356.523804 
	C307.518097,355.846283 304.765198,355.846405 303.497955,354.474365 
	C302.627991,353.532440 303.134399,350.047089 304.254913,348.836792 
	C305.938019,347.018799 308.513306,347.013153 309.915344,350.428314 
z"/>
<path fill="#D3D4DD" opacity="1.000000" stroke="none" 
	d="
M280.871460,355.477417 
	C281.052612,355.849579 281.014771,355.780121 281.035522,355.752075 
	C279.249207,355.075073 277.442169,354.426147 275.232819,353.632782 
	C275.092651,353.965454 274.666840,354.975922 274.241028,355.986389 
	C273.946930,355.947845 273.652832,355.909302 273.358734,355.870758 
	C273.358734,352.600555 273.358734,349.330353 273.358734,346.060120 
	C273.579895,345.988892 273.801025,345.917694 274.022186,345.846466 
	C274.507416,346.839355 274.992645,347.832245 275.560974,348.995148 
	C277.038208,347.779694 278.474976,346.597565 279.911774,345.415405 
	C280.241058,345.691498 280.570343,345.967590 280.899628,346.243713 
	C279.785095,347.602112 278.670563,348.960541 277.236359,350.708557 
	C278.339294,352.112549 279.514801,353.608917 280.871460,355.477417 
z"/>
<path fill="#2B2E6B" opacity="1.000000" stroke="none" 
	d="
M301.991272,353.980408 
	C300.549744,354.921326 299.108215,355.862274 297.666687,356.803223 
	C295.940704,353.979614 294.214722,351.156006 292.488739,348.332367 
	C292.858307,347.957672 293.227844,347.582947 293.597382,347.208221 
	C296.304199,347.556061 299.011017,347.903870 301.717834,348.251678 
	C301.703278,348.674835 301.688721,349.097961 301.674164,349.521118 
	C300.610962,349.809113 299.547760,350.097076 297.929504,350.781281 
	C298.913422,352.111786 300.452362,353.046082 301.991272,353.980408 
z"/>
<path fill="#D3D4DD" opacity="1.000000" stroke="none" 
	d="
M167.906052,354.176880 
	C167.012497,354.842102 166.052155,356.128082 165.239563,356.040649 
	C163.648087,355.869385 162.139008,354.932404 160.265778,354.172821 
	C159.935745,354.033295 159.996140,354.059723 159.996140,354.059723 
	C160.062378,352.114136 159.672974,350.008301 160.289215,348.256134 
	C161.593445,344.547943 166.171524,344.666901 168.644897,348.728302 
	C166.486313,348.726685 164.710312,348.307312 162.934311,347.887939 
	C162.719620,349.565369 161.753418,352.142029 162.452393,352.726135 
	C163.760696,353.819519 166.034119,353.757996 167.906052,354.176880 
z"/>
<path fill="#B7B8CA" opacity="1.000000" stroke="none" 
	d="
M258.938538,348.310272 
	C259.692352,347.195160 260.446167,346.080078 261.327271,344.776642 
	C262.378418,346.259552 263.379089,347.671234 264.329712,349.012268 
	C263.582306,350.930878 262.606201,353.436768 261.630066,355.942627 
	C261.347015,355.986420 261.063965,356.030243 260.780914,356.074036 
	C260.430664,353.848541 260.080444,351.623047 259.281097,349.061707 
	C258.831970,348.725861 258.938538,348.310272 258.938538,348.310272 
z"/>
<path fill="#343772" opacity="1.000000" stroke="none" 
	d="
M167.985474,353.805359 
	C166.034119,353.757996 163.760696,353.819519 162.452393,352.726135 
	C161.753418,352.142029 162.719620,349.565369 162.934311,347.887939 
	C164.710312,348.307312 166.486313,348.726685 168.639709,349.091431 
	C168.699722,350.502441 168.382309,351.968170 167.985474,353.805359 
z"/>
<path fill="#CBCBD7" opacity="1.000000" stroke="none" 
	d="
M159.924225,354.002380 
	C157.573593,354.937286 155.234467,355.903107 152.703186,356.948273 
	C152.703186,352.329010 152.703186,349.127655 152.703186,345.926331 
	C153.136353,345.925018 153.569519,345.923706 154.002670,345.922394 
	C154.128876,348.416290 154.255081,350.910187 154.402618,353.825806 
	C156.017776,353.995178 157.587112,354.159729 159.576294,354.192017 
	C159.996140,354.059723 159.935745,354.033295 159.924225,354.002380 
z"/>
<path fill="#D3D4DD" opacity="1.000000" stroke="none" 
	d="
M189.068115,346.545471 
	C189.224915,349.899170 189.224915,352.852692 189.224915,355.806183 
	C188.831833,355.884186 188.438736,355.962158 188.045654,356.040161 
	C187.311218,353.350067 186.576767,350.659943 185.559189,346.932831 
	C185.819687,346.871613 187.365494,346.508453 189.068115,346.545471 
z"/>
<path fill="#DADAE1" opacity="1.000000" stroke="none" 
	d="
M258.660706,348.086670 
	C258.938538,348.310272 258.831970,348.725861 258.860229,348.829834 
	C258.602631,351.181183 258.316803,353.428589 257.835846,357.210266 
	C256.966766,355.178986 256.042267,353.977966 256.023041,352.762665 
	C255.988724,350.592499 256.500763,348.413727 256.784363,346.238556 
	C257.317169,346.780060 257.850037,347.321533 258.660706,348.086670 
z"/>
<path fill="#AAABC1" opacity="1.000000" stroke="none" 
	d="
M302.024353,353.618591 
	C300.452362,353.046082 298.913422,352.111786 297.698730,351.002380 
	C299.367798,351.637115 300.712616,352.446960 302.024353,353.618591 
z"/>
<path fill="#3F4279" opacity="1.000000" stroke="none" 
	d="
M106.669159,190.053879 
	C107.262222,190.334961 107.530830,190.671524 107.603584,191.405518 
	C107.246796,191.894363 107.085861,191.985825 106.574921,192.057114 
	C105.757942,192.071228 105.290985,192.105499 104.824020,192.139755 
	C104.824020,192.139755 104.853523,192.022095 104.913925,192.027313 
	C105.431122,191.391464 105.887901,190.750412 106.669159,190.053879 
z"/>
<path fill="#525486" opacity="1.000000" stroke="none" 
	d="
M94.069244,216.219543 
	C94.191254,214.514755 94.313194,213.283981 94.435127,212.053223 
	C94.771614,212.065353 95.108093,212.077484 95.444580,212.089630 
	C95.444580,248.972336 95.444580,285.855042 95.444580,322.737732 
	C94.986115,322.743713 94.527641,322.749695 94.069176,322.755646 
	C94.069176,287.401611 94.069176,252.047592 94.069244,216.219543 
z"/>
<path fill="#232766" opacity="1.000000" stroke="none" 
	d="
M106.225761,314.868652 
	C103.323677,314.530334 100.883621,314.203979 98.171333,313.841217 
	C98.171333,311.307190 98.171333,308.922607 98.171333,306.834290 
	C105.270058,306.834290 112.140121,306.834290 119.429749,306.834290 
	C119.429749,308.773499 119.429749,311.101868 119.429749,314.148315 
	C115.164917,314.393433 110.926361,314.637024 106.225761,314.868652 
z"/>
<path fill="#232766" opacity="1.000000" stroke="none" 
	d="
M117.958061,243.879059 
	C114.931648,244.268005 111.905243,244.656967 108.669174,244.730621 
	C109.550743,244.029175 110.641975,243.643021 111.733208,243.256866 
	C110.037384,244.381882 106.109077,239.619736 105.980278,244.890823 
	C103.929283,244.616226 101.878288,244.341629 99.655952,243.725037 
	C100.133560,243.089432 100.782509,242.795807 102.507629,242.015228 
	C100.594231,242.015228 99.843994,242.015228 99.093758,242.015228 
	C98.587898,240.061157 98.082039,238.107086 97.545654,236.035095 
	C105.190605,236.035095 112.098549,236.035095 120.319519,236.035095 
	C119.392776,237.984924 118.573975,239.707657 117.306488,241.740356 
	C117.224556,242.659897 117.591309,243.269470 117.958061,243.879059 
z"/>
<path fill="#3F4279" opacity="1.000000" stroke="none" 
	d="
M105.632698,201.374725 
	C106.701637,202.972153 107.770569,204.569580 108.839508,206.166992 
	C109.266136,205.985352 109.692764,205.803711 110.119385,205.622070 
	C109.366516,203.330444 108.613640,201.038818 108.164276,198.229858 
	C108.633881,197.149277 108.799980,196.586060 109.170700,195.759872 
	C109.480103,195.301041 109.584877,195.105179 109.689667,194.909302 
	C110.808464,196.947296 111.927261,198.985306 112.976257,201.623260 
	C112.928978,204.109833 112.951508,205.996475 112.974045,207.883102 
	C108.916687,207.552155 104.859329,207.221207 100.837387,206.444458 
	C101.100906,204.844604 101.329002,203.690567 101.912415,202.241455 
	C102.833092,201.952240 103.398453,201.958115 103.983566,201.983582 
	C104.003319,202.003189 104.042877,202.042313 104.031815,202.297241 
	C104.142853,202.785019 104.264954,203.017838 104.387054,203.250671 
	C104.588524,202.836594 104.789993,202.422501 105.158287,201.856598 
	C105.325119,201.704773 105.632698,201.374725 105.632698,201.374725 
z"/>
<path fill="#494D80" opacity="1.000000" stroke="none" 
	d="
M118.876999,181.612411 
	C122.495750,185.898682 126.076927,190.259644 129.948578,194.819962 
	C128.837830,194.683563 126.898064,194.814041 126.131676,193.928741 
	C123.307594,190.666473 120.872093,187.067810 118.408051,183.138916 
	C118.749962,182.430038 118.893585,182.138168 118.956497,181.806564 
	C118.956497,181.806564 118.839424,181.687119 118.876999,181.612411 
z"/>
<path fill="#494D80" opacity="1.000000" stroke="none" 
	d="
M113.323875,207.920044 
	C112.951508,205.996475 112.928978,204.109833 113.035461,201.963760 
	C113.508766,203.774323 117.942070,205.511322 113.323875,207.920044 
z"/>
<path fill="#3F4279" opacity="1.000000" stroke="none" 
	d="
M106.316376,244.980408 
	C106.109077,239.619736 110.037384,244.381882 111.733208,243.256866 
	C110.641975,243.643021 109.550743,244.029175 108.243927,244.672699 
	C107.569717,244.976700 107.111092,245.023346 106.316376,244.980408 
z"/>
<path fill="#EFEFF0" opacity="1.000000" stroke="none" 
	d="
M119.524948,202.512131 
	C120.112206,203.432388 120.468369,204.146011 120.933464,205.077911 
	C117.582542,203.775299 117.582542,203.775299 119.524948,202.512131 
z"/>
<path fill="#EFEFF0" opacity="1.000000" stroke="none" 
	d="
M116.684921,197.961060 
	C117.135674,198.868408 117.331963,199.651001 117.528259,200.433594 
	C117.162323,200.475159 116.796387,200.516724 116.430450,200.558289 
	C116.430450,199.650970 116.430450,198.743637 116.684921,197.961060 
z"/>
<path fill="#EFEFF0" opacity="1.000000" stroke="none" 
	d="
M112.046112,192.175568 
	C112.365280,191.678925 112.702942,191.471695 113.040604,191.264481 
	C113.135368,191.984741 113.230133,192.705002 113.324898,193.425262 
	C112.904793,193.105164 112.484695,192.785065 112.046112,192.175568 
z"/>
<path fill="#3F4279" opacity="1.000000" stroke="none" 
	d="
M118.306602,243.889023 
	C117.591309,243.269470 117.224556,242.659897 117.077347,242.061554 
	C118.028191,242.211960 118.759514,242.351120 119.490829,242.490295 
	C119.212265,242.959854 118.933701,243.429428 118.306602,243.889023 
z"/>
<path fill="#3F4279" opacity="1.000000" stroke="none" 
	d="
M98.780228,242.069748 
	C99.843994,242.015228 100.594231,242.015228 102.507629,242.015228 
	C100.782509,242.795807 100.133560,243.089432 99.282997,243.596832 
	C98.876488,243.248489 98.671593,242.686371 98.780228,242.069748 
z"/>
<path fill="#EFEFF0" opacity="1.000000" stroke="none" 
	d="
M135.219666,196.315918 
	C135.695053,196.159927 136.356781,196.245224 137.093567,196.632233 
	C136.581070,196.808365 135.993546,196.682785 135.219666,196.315918 
z"/>
<path fill="#EFEFF0" opacity="1.000000" stroke="none" 
	d="
M114.258316,195.644043 
	C114.008209,195.629288 113.871834,195.495331 113.735458,195.361374 
	C113.947655,195.415863 114.159859,195.470352 114.258316,195.644043 
z"/>
<path fill="#3F4279" opacity="1.000000" stroke="none" 
	d="
M108.615540,192.838394 
	C108.927826,193.339615 109.240120,193.840836 109.621033,194.625671 
	C109.584877,195.105179 109.480103,195.301041 108.933159,195.586639 
	C108.315742,195.125748 108.140495,194.575119 108.157745,193.744385 
	C108.438667,193.255646 108.527107,193.047028 108.615540,192.838394 
z"/>
<path fill="#3F4279" opacity="1.000000" stroke="none" 
	d="
M107.673538,191.722687 
	C108.148407,191.927292 108.357468,192.212097 108.591034,192.667648 
	C108.527107,193.047028 108.438667,193.255646 107.921654,193.575958 
	C107.303696,193.150864 107.114311,192.614059 106.924934,192.077271 
	C107.085861,191.985825 107.246796,191.894363 107.673538,191.722687 
z"/>
<path fill="#161A5D" opacity="1.000000" stroke="none" 
	d="
M118.572220,181.713715 
	C118.893585,182.138168 118.749962,182.430038 118.319038,182.813599 
	C118.137604,182.503662 118.162773,182.062271 118.572220,181.713715 
z"/>
<path fill="#232766" opacity="1.000000" stroke="none" 
	d="
M276.190979,278.552521 
	C279.664062,276.105286 281.677338,276.827423 282.137451,281.007202 
	C282.897156,287.908630 281.754547,289.818420 276.141846,289.691132 
	C276.141846,286.139893 276.141846,282.564911 276.190979,278.552521 
z"/>
<path fill="#2B2E6B" opacity="1.000000" stroke="none" 
	d="
M173.733765,209.011902 
	C173.732391,216.501480 173.770416,223.493835 173.702942,230.485153 
	C173.685425,232.299286 173.560989,234.176514 173.050171,235.895325 
	C172.785568,236.785721 171.479553,238.062546 170.801529,237.972931 
	C169.754242,237.834564 168.391342,236.867218 167.977493,235.901932 
	C167.347977,234.433533 167.227570,232.667160 167.218338,231.025482 
	C167.158325,220.371399 167.183823,209.716812 167.192703,199.062393 
	C167.193390,198.232330 166.999329,197.226776 167.385193,196.607910 
	C168.257706,195.208450 169.436371,193.999893 170.490524,192.713684 
	C171.531921,193.986938 173.320007,195.176849 173.473175,196.549255 
	C173.913910,200.498108 173.694107,204.520676 173.733765,209.011902 
z"/>
<path fill="#161A5D" opacity="1.000000" stroke="none" 
	d="
M281.099304,197.362305 
	C281.136627,208.626694 281.154694,219.425598 281.139130,230.224472 
	C281.136749,231.882019 281.317596,233.659637 280.784454,235.157761 
	C280.375977,236.305511 278.943665,237.879654 278.024841,237.842087 
	C277.020233,237.801010 275.985840,236.198547 275.161896,235.125015 
	C274.819305,234.678650 274.932922,233.839920 274.932343,233.179535 
	C274.921722,221.217667 274.821259,209.253754 275.056671,197.296509 
	C275.086365,195.787018 276.896454,194.312576 277.881683,192.821915 
	C278.944122,194.180222 280.006592,195.538528 281.099304,197.362305 
z"/>
<path fill="#232766" opacity="1.000000" stroke="none" 
	d="
M141.580154,322.706360 
	C142.036713,324.323364 142.036713,325.815887 142.036713,328.548920 
	C137.889923,328.548920 133.852753,328.553894 129.815598,328.547302 
	C126.673897,328.542206 125.309135,327.060486 126.049133,323.475464 
	C131.112778,322.893921 136.118179,322.737915 141.580154,322.706360 
z"/>
<path fill="#F0F0F0" opacity="1.000000" stroke="none" 
	d="
M128.048950,183.060822 
	C127.971886,183.338196 127.789673,183.507980 127.607452,183.677765 
	C127.552643,183.456406 127.497841,183.235046 127.585297,182.878876 
	C127.727539,182.744064 127.943794,182.953247 128.048950,183.060822 
z"/>
<path fill="#3F4279" opacity="1.000000" stroke="none" 
	d="
M100.031403,197.900604 
	C101.420517,198.240051 102.809631,198.579483 103.785118,199.409164 
	C102.691856,200.044571 102.012230,200.189743 101.332603,200.334900 
	C100.883179,200.163269 100.433746,199.991653 99.973602,199.216797 
	C99.985725,198.375900 100.008568,198.138260 100.031403,197.900604 
z"/>
<path fill="#494D80" opacity="1.000000" stroke="none" 
	d="
M101.327133,200.574829 
	C102.012230,200.189743 102.691856,200.044571 103.876663,199.776230 
	C104.381836,199.653046 104.366493,199.711044 104.238029,200.096725 
	C104.060982,200.976273 104.012390,201.470139 103.963806,201.963989 
	C103.398453,201.958115 102.833092,201.952240 101.839920,201.844147 
	C101.247276,201.445938 101.217133,201.136887 101.327133,200.574829 
z"/>
<path fill="#494D80" opacity="1.000000" stroke="none" 
	d="
M99.983231,197.565735 
	C100.008568,198.138260 99.985725,198.375900 99.903107,198.967926 
	C99.525391,198.703461 99.207451,198.084595 98.876251,197.039276 
	C98.862976,196.612823 98.980026,196.477661 98.980026,196.477661 
	C98.928436,196.302109 98.876854,196.126572 98.915108,195.691376 
	C99.314980,196.031433 99.625015,196.631134 99.983231,197.565735 
z"/>
<path fill="#161A5D" opacity="1.000000" stroke="none" 
	d="
M98.848633,196.271881 
	C98.980026,196.477661 98.862976,196.612823 98.919464,196.679718 
	C98.744789,196.593552 98.513634,196.440491 98.282478,196.287430 
	C98.427399,196.213654 98.572327,196.139893 98.848633,196.271881 
z"/>
<path fill="#161A5D" opacity="1.000000" stroke="none" 
	d="
M234.439026,348.609711 
	C235.089447,348.626709 235.739883,348.643677 236.681488,348.816895 
	C236.920074,349.800110 236.867493,350.627045 236.466248,351.573242 
	C235.358307,351.103119 234.599030,350.513733 233.854645,349.533813 
	C234.059387,348.965424 234.249207,348.787567 234.439026,348.609711 
z"/>
<path fill="#494D80" opacity="1.000000" stroke="none" 
	d="
M106.574921,192.057114 
	C107.114311,192.614059 107.303696,193.150864 107.729156,193.856079 
	C108.140495,194.575119 108.315742,195.125748 108.728531,195.849594 
	C108.799980,196.586060 108.633881,197.149277 108.206757,197.866180 
	C106.949753,196.284561 105.953781,194.549286 104.890915,192.476883 
	C105.290985,192.105499 105.757942,192.071228 106.574921,192.057114 
z"/>
<path fill="#3F4279" opacity="1.000000" stroke="none" 
	d="
M103.983566,201.983597 
	C104.012390,201.470139 104.060982,200.976273 104.233902,200.126434 
	C104.697105,200.147461 105.035965,200.524429 105.503761,201.138062 
	C105.632698,201.374725 105.325119,201.704773 104.920959,201.858276 
	C104.516792,202.011795 104.042877,202.042313 104.042877,202.042313 
	C104.042877,202.042313 104.003319,202.003189 103.983566,201.983597 
z"/>
<path fill="#161A5D" opacity="1.000000" stroke="none" 
	d="
M214.783997,351.418304 
	C214.773071,356.133972 213.190628,354.202271 211.051727,352.152405 
	C212.505005,351.698334 213.504623,351.386017 214.783997,351.418304 
z"/>
<path fill="#161A5D" opacity="1.000000" stroke="none" 
	d="
M233.580383,349.405273 
	C232.774536,349.037506 232.257889,348.407715 231.741226,347.777954 
	C232.535782,347.845093 233.330338,347.912231 234.281952,348.294556 
	C234.249207,348.787567 234.059387,348.965424 233.580383,349.405273 
z"/>
<path fill="#494D80" opacity="1.000000" stroke="none" 
	d="
M104.031815,202.297241 
	C104.042877,202.042313 104.516792,202.011795 104.754120,202.010101 
	C104.789993,202.422501 104.588524,202.836594 104.387054,203.250671 
	C104.264954,203.017838 104.142853,202.785019 104.031815,202.297241 
z"/>
</svg>